<?xml version="1.0" encoding="UTF-8" standalone="no"?>
<!DOCTYPE svg PUBLIC "-//W3C//DTD SVG 1.1//EN" "http://www.w3.org/Graphics/SVG/1.1/DTD/svg11.dtd">
<svg width="100%" height="100%" viewBox="0 0 17 17" version="1.1" xmlns="http://www.w3.org/2000/svg" xmlns:xlink="http://www.w3.org/1999/xlink" xml:space="preserve" xmlns:serif="http://www.serif.com/" style="fill-rule:evenodd;clip-rule:evenodd;stroke-linejoin:round;stroke-miterlimit:2;">
    <g transform="matrix(0.979277,0,0,0.982155,0.250201,0.217025)">
        <path d="M5.3,5.6L1.4,1.7C1.9,1.2 2.4,0.7 2.9,0.2C3.1,-0 3.5,-0 3.7,0.2L6.7,3.2C7,3.4 7,3.8 6.8,4.1L6.1,4.7L5.5,5.3C5.4,5.4 5.4,5.5 5.3,5.6ZM8.5,11.9C7.9,11.4 7.2,10.8 6.7,10.2C6.1,9.6 5.5,9 4.9,8.4C4.5,7.8 4.4,7.1 4.6,6.5L0.6,2.5C-0.3,3.5 -0.2,5.8 0.8,7.9C1.2,8.8 1.8,9.6 2.4,10.4C3,11.2 3.6,11.9 4.3,12.6C5,13.3 5.7,13.9 6.5,14.5C7.3,15 8.1,15.6 9,16C11.1,17 13.5,17.1 14.4,16.2L10.4,12.2C9.8,12.5 9,12.4 8.5,11.9ZM16.7,13.1L13.7,10.1C13.5,9.9 13.1,9.9 12.9,10.1L11.6,11.4C11.5,11.5 11.4,11.5 11.4,11.6L15.3,15.5C15.8,15 16.3,14.5 16.8,14C16.9,13.7 16.9,13.4 16.7,13.1Z" style="fill:rgb(223,62,60);fill-rule:nonzero;"/>
    </g>
</svg>
