<?xml version="1.0" encoding="utf-8"?>
<!-- Generator: Adobe Illustrator 17.1.0, SVG Export Plug-In . SVG Version: 6.00 Build 0)  -->
<!DOCTYPE svg PUBLIC "-//W3C//DTD SVG 1.1//EN" "http://www.w3.org/Graphics/SVG/1.1/DTD/svg11.dtd" [
	<!ENTITY ns_extend "http://ns.adobe.com/Extensibility/1.0/">
	<!ENTITY ns_ai "http://ns.adobe.com/AdobeIllustrator/10.0/">
	<!ENTITY ns_graphs "http://ns.adobe.com/Graphs/1.0/">
	<!ENTITY ns_vars "http://ns.adobe.com/Variables/1.0/">
	<!ENTITY ns_imrep "http://ns.adobe.com/ImageReplacement/1.0/">
	<!ENTITY ns_sfw "http://ns.adobe.com/SaveForWeb/1.0/">
	<!ENTITY ns_custom "http://ns.adobe.com/GenericCustomNamespace/1.0/">
	<!ENTITY ns_adobe_xpath "http://ns.adobe.com/XPath/1.0/">
]>
<svg version="1.1" id="Layer_1" xmlns:x="&ns_extend;" xmlns:i="&ns_ai;" xmlns:graph="&ns_graphs;"
	 xmlns="http://www.w3.org/2000/svg" xmlns:xlink="http://www.w3.org/1999/xlink" x="0px" y="0px" viewBox="0 0 1200 184.9"
	 enable-background="new 0 0 1200 184.9" xml:space="preserve">
<metadata>
	<sfw  xmlns="&ns_sfw;">
		<slices></slices>
		<sliceSourceBounds  width="1200" height="184.9" x="360" y="-633.5" bottomLeftOrigin="true"></sliceSourceBounds>
	</sfw>
</metadata>
<g>
	<path fill="#F9BB4C" d="M106.4,20.8C93.3,6.9,76.8,0,57.1,0H0v27.1c41.6,0,57.1,0,57.1,0c12.5,0,22.6,4.2,30.4,12.5
		c7.8,8.2,11.7,19,11.7,32.3c0,13.1-3.9,24-11.7,32.5c-7.8,8.2-17.9,12.3-30.4,12.3c0,0-34.9,0-57.1,0v27.1h57.1
		c19.7,0,36.2-6.9,49.3-20.7c13.3-13.7,19.9-30.7,19.9-51.2C126.3,51.5,119.7,34.5,106.4,20.8z"/>
	<path fill="#F9BB4C" d="M232.8,131.1c-10.4,10.4-23.3,15.6-38.6,15.6c-15.3,0-28.2-5.2-38.6-15.6c-10.4-10.4-15.6-23.3-15.6-38.6
		c0-15.2,5.2-28,15.6-38.4c10.5-10.5,23.4-15.8,38.6-15.8s28.1,5.3,38.6,15.8c10.5,10.6,15.8,23.4,15.8,38.4
		C248.6,107.7,243.3,120.5,232.8,131.1z M174.2,112.8c5.3,5.3,12,8,19.9,8c7.9,0,14.6-2.7,19.9-8c5.3-5.3,8-12.1,8-20.3
		s-2.7-15-8-20.3c-5.3-5.3-12-8-19.9-8c-7.9,0-14.6,2.7-19.9,8c-5.2,5.5-7.8,12.3-7.8,20.3S169,107.3,174.2,112.8z"/>
	<path fill="#F9BB4C" d="M354.4,65.6C345.6,57.2,335.5,53,324,53c-13,0-28.8,6-35.7,16.1c-0.5-10.5,4.2-20,9.4-25.2
		c5.3-5.1,13.3-8.8,24.2-11l28.3-5.8l11.9-2.4L358.3,0l-9.1,1.9l-14.6,3l-21.8,4.5c-17.3,3.7-30.1,11.4-38.4,23.2
		C266.1,44.4,262,60.2,262,80c0,0,0,7.3,0,11.4c0,16.1,4.9,29.3,14.8,39.7c10,10.4,23.1,15.6,39.2,15.6c15.5,0,27.9-4.5,37.4-13.6
		c9.6-9.1,14.4-20.6,14.4-34.8C367.8,84.7,363.3,73.8,354.4,65.6z M334,115.7c-4.6,4.5-10.8,6.8-18.3,6.8c-7.4,0-13.6-2.3-18.7-7
		c-4.9-4.6-7.4-10.6-7.4-17.8c0-7,2.6-12.7,7.8-17.1c5.2-4.3,11.2-6.4,18.1-6.4c7.5,0,13.7,2.3,18.5,6.9c4.8,4.6,7.2,10.4,7.2,17.4
		C341.2,105.4,338.9,111.2,334,115.7z"/>
	<path fill="#F9BB4C" d="M443.6,38.2c13.8,0,25.6,5.3,35.3,15.8c9.9,10.6,14.8,23.4,14.8,38.4c0,15.3-4.9,28.2-14.8,38.6
		c-9.6,10.4-21.4,15.6-35.3,15.6c-14.4,0-25.5-5-33.3-15v53.2h-26.5V41.1h26.5v12.1C418.1,43.2,429.2,38.2,443.6,38.2z M418.3,113.4
		c5.3,5.3,12.1,8,20.3,8c8.2,0,15-2.7,20.3-8c5.5-5.5,8.2-12.5,8.2-21c0-8.5-2.7-15.4-8.2-20.7c-5.3-5.5-12.1-8.2-20.3-8.2
		c-8.2,0-15,2.7-20.3,8.2c-5.3,5.3-8,12.3-8,20.7C410.3,101,412.9,107.9,418.3,113.4z"/>
	<path fill="#F9BB4C" d="M599.9,131.1c-10.4,10.4-23.3,15.6-38.6,15.6c-15.3,0-28.2-5.2-38.6-15.6S507,107.8,507,92.5
		c0-15.2,5.2-28,15.6-38.4c10.5-10.5,23.4-15.8,38.6-15.8c15.2,0,28.1,5.3,38.6,15.8c10.5,10.6,15.8,23.4,15.8,38.4
		C615.7,107.7,610.4,120.5,599.9,131.1z M541.3,112.8c5.3,5.3,12,8,19.9,8c7.9,0,14.6-2.7,19.9-8c5.3-5.3,8-12.1,8-20.3
		s-2.7-15-8-20.3c-5.3-5.3-12-8-19.9-8c-7.9,0-14.6,2.7-19.9,8c-5.2,5.5-7.8,12.3-7.8,20.3S536.1,107.3,541.3,112.8z"/>
	<path fill="#F9BB4C" d="M722.8,41.1V119h13.6v52.4h-25.9v-27.5h-63.7v27.5h-25.9V119h12.5c5.9-8.8,8.8-20.9,8.8-36.4V41.1H722.8z
		 M661.7,119h35.1v-54h-28.8v17.7C668.1,97.4,666,109.5,661.7,119z"/>
	<path fill="#F9BB4C" d="M827.1,91.2c9.6,4.7,14.4,12.5,14.4,23.4c0,8.8-3,15.8-9,21.2c-6,5.3-14.4,8-25.3,8h-54V41.1h49.9
		c10.7,0,19,2.6,25.1,7.9c6,5.3,9,12.3,9,21.1C837.2,79.1,833.8,86.2,827.1,91.2z M800.6,62.9H778v18.5h22.6
		c7.5,0,11.3-3.1,11.3-9.2C811.9,66,808.1,62.9,800.6,62.9z M778,121.4h26.1c7.7,0,11.5-3.3,11.5-9.9c0-2.9-1-5.1-3.1-6.8
		c-2.1-1.6-4.9-2.5-8.4-2.5H778V121.4z"/>
	<path fill="#F9BB4C" d="M958,103.3h-77.5c3.4,12.9,13.1,19.3,29,19.3c10.1,0,17.8-3.4,23-10.3l21.4,12.3
		c-10.1,14.7-25.1,22-44.8,22c-17,0-30.6-5.1-40.9-15.4c-10.3-10.3-15.4-23.2-15.4-38.8c0-15.3,5.1-28.2,15.2-38.6
		c10-10.4,23-15.6,39-15.6c15.2,0,27.6,5.2,37.2,15.6c9.9,10.4,14.8,23.3,14.8,38.6C959,95.3,958.7,99,958,103.3z M880.1,82.8h52.4
		c-1.5-6.7-4.6-11.8-9.1-15.4c-4.6-3.6-10-5.3-16.3-5.3c-7.1,0-13,1.8-17.7,5.4C884.7,71.1,881.6,76.2,880.1,82.8z"/>
	<path fill="#F9BB4C" d="M1037.3,38.2c13.8,0,25.6,5.3,35.3,15.8c9.9,10.6,14.8,23.4,14.8,38.4c0,15.3-4.9,28.2-14.8,38.6
		c-9.6,10.4-21.4,15.6-35.3,15.6c-14.4,0-25.5-5-33.3-15v53.2h-26.5V41.1h26.5v12.1C1011.8,43.2,1022.9,38.2,1037.3,38.2z
		 M1012,113.4c5.3,5.3,12.1,8,20.3,8s15-2.7,20.3-8c5.5-5.5,8.2-12.5,8.2-21c0-8.5-2.7-15.4-8.2-20.7c-5.3-5.5-12.1-8.2-20.3-8.2
		s-15,2.7-20.3,8.2c-5.3,5.3-8,12.3-8,20.7C1004,101,1006.7,107.9,1012,113.4z"/>
	<path fill="#F9BB4C" d="M1132,99.4l48.3-58.3h19.7v102.7h-25.9V85.5l-48.3,58.3h-19.7V41.1h25.9V99.4z"/>
	<path fill="#FF9414" d="M14.3,66.3H14c-7.8,0-14-6.3-14-14V52c0-7.8,6.3-14,14-14h0.3c7.8,0,14,6.3,14,14v0.3
		C28.4,60.1,22.1,66.3,14.3,66.3z"/>
	<path fill="#FF9414" d="M14.3,105.7H14c-7.8,0-14-6.3-14-14v-0.3c0-7.8,6.3-14,14-14h0.3c7.8,0,14,6.3,14,14v0.3
		C28.4,99.4,22.1,105.7,14.3,105.7z"/>
</g>
</svg>
