<?xml version="1.0" encoding="UTF-8" standalone="no"?>
<!DOCTYPE svg PUBLIC "-//W3C//DTD SVG 1.1//EN" "http://www.w3.org/Graphics/SVG/1.1/DTD/svg11.dtd">
<svg width="100%" height="100%" viewBox="0 0 3375 334" version="1.1" xmlns="http://www.w3.org/2000/svg" xmlns:xlink="http://www.w3.org/1999/xlink" xml:space="preserve" xmlns:serif="http://www.serif.com/" style="fill-rule:evenodd;clip-rule:evenodd;stroke-linejoin:round;stroke-miterlimit:2;">
    <g id="Layer-1" serif:id="Layer 1" transform="matrix(6.13849,0,0,6.13849,-896.466,-1660.68)">
        <g transform="matrix(1,0,0,1,193.44,287.192)">
            <path d="M0,31.33L0,-0.004L-36.341,-0.004C-36.911,0.02 -37.461,0.262 -37.867,0.667C-38.272,1.078 -38.514,1.619 -38.543,2.198L-38.543,31.33L0,31.33ZM4.819,31.33L7.833,31.33L7.833,36.148L-46.365,36.148L-46.365,31.33L-43.362,31.33L-43.362,1.956C-43.178,-1.713 -40.233,-4.649 -36.563,-4.818L4.819,-4.818L4.819,31.33Z" style="fill:rgb(69,72,73);fill-rule:nonzero;"/>
        </g>
        <g transform="matrix(1,0,0,1,253.993,300.723)">
            <path d="M0,4.269C-0.029,3.689 -0.271,3.149 -0.676,2.738C-1.091,2.328 -1.632,2.091 -2.202,2.062L-38.543,2.134L-38.543,17.799L-2.202,17.799C-1.623,17.77 -1.082,17.529 -0.676,17.118C-0.261,16.707 -0.029,16.166 0,15.592L0,4.269ZM-38.543,-2.748L-5.215,-2.748C-4.646,-2.776 -4.104,-3.018 -3.699,-3.423C-3.284,-3.829 -3.042,-4.375 -3.013,-4.949L-3.023,-11.323C-3.052,-11.898 -3.284,-12.439 -3.699,-12.849C-4.104,-13.259 -4.646,-13.501 -5.225,-13.53L-38.543,-13.53L-38.543,-2.748ZM4.819,4.028L4.809,15.814C4.645,19.484 1.709,22.43 -1.96,22.613L-43.362,22.613L-43.362,-18.344L-4.983,-18.344C-1.313,-18.161 1.622,-15.215 1.796,-11.541L1.796,-4.708C1.748,-3.709 1.487,-2.757 1.072,-1.907C3.206,-0.753 4.684,1.454 4.819,4.028" style="fill:rgb(69,72,73);fill-rule:nonzero;"/>
        </g>
        <g transform="matrix(1,0,0,1,273.684,318.517)">
            <path d="M0,-31.319L0,-18.069L33.714,-18.069L33.714,-13.25L0,-13.25L0,0L33.714,0L33.714,4.819L-4.819,4.819L-4.819,-36.138L33.714,-36.138L33.714,-31.319L0,-31.319Z" style="fill:rgb(69,72,73);fill-rule:nonzero;"/>
        </g>
        <g transform="matrix(1,0,0,1,360.572,304.985)">
            <path d="M0,-4.257L0,-15.586C-0.029,-16.16 -0.261,-16.701 -0.676,-17.111C-1.082,-17.522 -1.623,-17.763 -2.202,-17.792L-38.543,-17.792L-38.543,-2.128L-2.202,-2.056C-1.632,-2.084 -1.091,-2.321 -0.676,-2.732C-0.271,-3.137 -0.029,-3.683 0,-4.257M4.819,-4.021C4.636,-0.346 1.69,2.59 -1.979,2.754L-38.543,2.754L-38.543,18.35L-43.362,18.35L-43.362,-22.607L-1.96,-22.607C1.709,-22.423 4.645,-19.478 4.81,-15.803L4.819,-4.021Z" style="fill:rgb(69,72,73);fill-rule:nonzero;"/>
        </g>
        <g transform="matrix(1,0,0,1,422.979,323.335)">
            <path d="M0,-40.957L0,0L-4.819,0L-4.819,-36.138L-6.181,-36.138L-39.645,0L-48.182,0L-48.182,-40.957L-43.362,-40.957L-43.362,-4.818L-41.759,-4.818L-8.538,-40.957L0,-40.957Z" style="fill:rgb(69,72,73);fill-rule:nonzero;"/>
        </g>
        <g transform="matrix(-1,0,0,1,892.533,46.576)">
            <rect x="431.235" y="271.941" width="30.063" height="4.818" style="fill:rgb(69,72,73);"/>
        </g>
        <g transform="matrix(1,0,0,1,517.729,323.335)">
            <path d="M0,-40.957L0,0L-4.819,0L-4.819,-18.068L-43.353,-18.068L-43.353,0L-48.172,0L-48.172,-40.957L-43.353,-40.957L-43.353,-22.888L-4.819,-22.888L-4.819,-40.957L0,-40.957Z" style="fill:rgb(69,72,73);fill-rule:nonzero;"/>
        </g>
        <g transform="matrix(1,0,0,1,561.834,296.028)">
            <path d="M0,13.657L-10.323,-8.83L-14.737,-8.83L-25.061,13.657L0,13.657ZM11.561,27.307L6.258,27.307L2.202,18.476L-27.263,18.476L-31.319,27.307L-36.621,27.307L-17.827,-13.65L-7.233,-13.65L11.561,27.307Z" style="fill:rgb(69,72,73);fill-rule:nonzero;"/>
        </g>
        <g transform="matrix(1,0,0,1,628.818,287.192)">
            <path d="M0,31.33L0,-0.004L-36.341,-0.004C-36.911,0.02 -37.461,0.262 -37.867,0.667C-38.272,1.078 -38.514,1.619 -38.543,2.198L-38.543,31.33L0,31.33ZM4.819,31.33L7.832,31.33L7.832,36.148L-46.365,36.148L-46.365,31.33L-43.362,31.33L-43.362,1.956C-43.179,-1.713 -40.233,-4.649 -36.563,-4.818L4.819,-4.818L4.819,31.33Z" style="fill:rgb(69,72,73);fill-rule:nonzero;"/>
        </g>
        <g transform="matrix(1,0,0,1,689.651,316.667)">
            <path d="M0,-27.62C-0.029,-28.195 -0.271,-28.74 -0.687,-29.146C-1.092,-29.556 -1.633,-29.793 -2.212,-29.822C-8.007,-30.087 -13.878,-30.223 -19.673,-30.223C-25.467,-30.223 -31.349,-30.087 -37.144,-29.822C-37.723,-29.793 -38.264,-29.556 -38.669,-29.146C-39.084,-28.74 -39.325,-28.195 -39.354,-27.62C-39.809,-18.455 -39.809,-9.16 -39.354,0.001C-39.325,0.58 -39.084,1.121 -38.669,1.531C-38.264,1.937 -37.723,2.178 -37.144,2.203C-31.349,2.468 -25.467,2.603 -19.673,2.603C-13.878,2.603 -8.007,2.468 -2.212,2.203C-1.633,2.178 -1.092,1.937 -0.687,1.531C-0.271,1.121 -0.029,0.58 0,0.001C0.453,-9.16 0.453,-18.455 0,-27.62M4.809,0.242C4.626,3.912 1.68,6.847 -1.99,7.016C-7.881,7.287 -13.781,7.422 -19.673,7.422C-25.573,7.422 -31.465,7.287 -37.365,7.016C-41.035,6.847 -43.98,3.912 -44.164,0.242C-44.638,-9.125 -44.638,-18.494 -44.164,-27.861C-43.98,-31.531 -41.035,-34.467 -37.365,-34.636C-31.465,-34.907 -25.573,-35.042 -19.673,-35.042C-13.781,-35.042 -7.881,-34.907 -1.99,-34.636C1.68,-34.467 4.626,-31.531 4.809,-27.861C5.282,-18.494 5.282,-9.125 4.809,0.242" style="fill:rgb(69,72,73);fill-rule:nonzero;"/>
        </g>
        <g transform="matrix(-1,0,0,1,892.532,-16.715)">
            <rect x="434.314" y="287.902" width="23.904" height="36.187" style="fill:rgb(223,62,60);"/>
        </g>
    </g>
</svg>
