<svg xmlns="http://www.w3.org/2000/svg" width="13" height="12" fill="none"><path d="M9.071 11.166L6.002 9.198l-3.069 1.968c-.191.121-.437.107-.614-.014-.177-.134-.26-.361-.205-.576l.968-3.347L.191 4.833c-.164-.134-.232-.362-.164-.576s.259-.348.478-.375l3.452-.241L5.511.308c.082-.187.273-.308.491-.308s.41.121.491.308l1.555 3.334 3.452.241c.218.014.409.16.478.375.068.201 0 .428-.163.576L8.936 7.217l.968 3.347a.51.51 0 0 1-.205.576c-.095.067-.205.107-.328.107-.109 0-.205-.027-.3-.08v-.001z" fill="url(#A)"/><path fill-rule="evenodd" d="M6 9.199l.002-.001 3.07 1.969c.095.053.191.08.3.08.123 0 .232-.04.328-.107a.51.51 0 0 0 .205-.576l-.968-3.347 2.878-2.383c.163-.148.232-.375.163-.576-.068-.215-.259-.361-.478-.375l-3.452-.241L6.494.308c-.082-.187-.273-.308-.491-.308L6 9.199z" fill="#d9d9d9"/><defs><linearGradient id="A" x1="15.444" y1="11.25" x2="15.444" y2="-.001" gradientUnits="userSpaceOnUse"><stop stop-color="#fc8507"/><stop offset="1" stop-color="#ffa218"/></linearGradient></defs></svg>
