<?xml version="1.0" encoding="UTF-8" standalone="no"?>
<!DOCTYPE svg PUBLIC "-//W3C//DTD SVG 1.1//EN" "http://www.w3.org/Graphics/SVG/1.1/DTD/svg11.dtd">
<svg width="100%" height="100%" viewBox="0 0 67 12" version="1.1" xmlns="http://www.w3.org/2000/svg" xmlns:xlink="http://www.w3.org/1999/xlink" xml:space="preserve" xmlns:serif="http://www.serif.com/" style="fill-rule:evenodd;clip-rule:evenodd;stroke-linejoin:round;stroke-miterlimit:2;">
    <g transform="matrix(1.01237,0,0,1.01237,0.0905385,0.305395)">
        <path d="M9.071,11.166L6.002,9.198L2.933,11.166C2.742,11.287 2.496,11.273 2.319,11.152C2.142,11.018 2.059,10.791 2.114,10.576L3.082,7.229L0.191,4.833C0.027,4.699 -0.041,4.471 0.027,4.257C0.095,4.043 0.286,3.909 0.505,3.882L3.957,3.641L5.511,0.308C5.593,0.121 5.784,0 6.002,0C6.22,0 6.412,0.121 6.493,0.308L8.048,3.642L11.5,3.883C11.718,3.897 11.909,4.043 11.978,4.258C12.046,4.459 11.978,4.686 11.815,4.834L8.936,7.217L9.904,10.564C9.971,10.78 9.887,11.015 9.699,11.14C9.604,11.207 9.494,11.247 9.371,11.247C9.262,11.247 9.166,11.22 9.071,11.167L9.071,11.166Z" style="fill:url(#_Linear1);fill-rule:nonzero;"/>
        <g transform="matrix(1,0,0,1,13.5512,0)">
            <path d="M9.071,11.166L6.002,9.198L2.933,11.166C2.742,11.287 2.496,11.273 2.319,11.152C2.142,11.018 2.059,10.791 2.114,10.576L3.082,7.229L0.191,4.833C0.027,4.699 -0.041,4.471 0.027,4.257C0.095,4.043 0.286,3.909 0.505,3.882L3.957,3.641L5.511,0.308C5.593,0.121 5.784,0 6.002,0C6.22,0 6.412,0.121 6.493,0.308L8.048,3.642L11.5,3.883C11.718,3.897 11.909,4.043 11.978,4.258C12.046,4.459 11.978,4.686 11.815,4.834L8.936,7.217L9.904,10.564C9.971,10.78 9.887,11.015 9.699,11.14C9.604,11.207 9.494,11.247 9.371,11.247C9.262,11.247 9.166,11.22 9.071,11.167L9.071,11.166Z" style="fill:url(#_Linear2);fill-rule:nonzero;"/>
        </g>
        <g transform="matrix(1,0,0,1,27.018,0)">
            <path d="M9.071,11.166L6.002,9.198L2.933,11.166C2.742,11.287 2.496,11.273 2.319,11.152C2.142,11.018 2.059,10.791 2.114,10.576L3.082,7.229L0.191,4.833C0.027,4.699 -0.041,4.471 0.027,4.257C0.095,4.043 0.286,3.909 0.505,3.882L3.957,3.641L5.511,0.308C5.593,0.121 5.784,0 6.002,0C6.22,0 6.412,0.121 6.493,0.308L8.048,3.642L11.5,3.883C11.718,3.897 11.909,4.043 11.978,4.258C12.046,4.459 11.978,4.686 11.815,4.834L8.936,7.217L9.904,10.564C9.971,10.78 9.887,11.015 9.699,11.14C9.604,11.207 9.494,11.247 9.371,11.247C9.262,11.247 9.166,11.22 9.071,11.167L9.071,11.166Z" style="fill:url(#_Linear3);fill-rule:nonzero;"/>
        </g>
        <g transform="matrix(1,0,0,1,40.4847,0)">
            <path d="M9.071,11.166L6.002,9.198L2.933,11.166C2.742,11.287 2.496,11.273 2.319,11.152C2.142,11.018 2.059,10.791 2.114,10.576L3.082,7.229L0.191,4.833C0.027,4.699 -0.041,4.471 0.027,4.257C0.095,4.043 0.286,3.909 0.505,3.882L3.957,3.641L5.511,0.308C5.593,0.121 5.784,0 6.002,0C6.22,0 6.412,0.121 6.493,0.308L8.048,3.642L11.5,3.883C11.718,3.897 11.909,4.043 11.978,4.258C12.046,4.459 11.978,4.686 11.815,4.834L8.936,7.217L9.904,10.564C9.971,10.78 9.887,11.015 9.699,11.14C9.604,11.207 9.494,11.247 9.371,11.247C9.262,11.247 9.166,11.22 9.071,11.167L9.071,11.166Z" style="fill:url(#_Linear4);fill-rule:nonzero;"/>
        </g>
        <g transform="matrix(1,0,0,1,53.9975,0)">
            <path d="M9.071,11.166L6.002,9.198L2.933,11.166C2.742,11.287 2.496,11.273 2.319,11.152C2.142,11.018 2.059,10.791 2.114,10.576L3.082,7.229L0.191,4.833C0.027,4.699 -0.041,4.471 0.027,4.257C0.095,4.043 0.286,3.909 0.505,3.882L3.957,3.641L5.511,0.308C5.593,0.121 5.784,0 6.002,0C6.22,0 6.412,0.121 6.493,0.308L8.048,3.642L11.5,3.883C11.718,3.897 11.909,4.043 11.978,4.258C12.046,4.459 11.978,4.686 11.815,4.834L8.936,7.217L9.904,10.564C9.971,10.78 9.887,11.015 9.699,11.14C9.604,11.207 9.494,11.247 9.371,11.247C9.262,11.247 9.166,11.22 9.071,11.167L9.071,11.166Z" style="fill:url(#_Linear5);fill-rule:nonzero;"/>
        </g>
    </g>
    <defs>
        <linearGradient id="_Linear1" x1="0" y1="0" x2="1" y2="0" gradientUnits="userSpaceOnUse" gradientTransform="matrix(6.88925e-16,-11.251,11.251,6.88925e-16,15.444,11.25)"><stop offset="0" style="stop-color:rgb(252,133,7);stop-opacity:1"/><stop offset="1" style="stop-color:rgb(255,162,24);stop-opacity:1"/></linearGradient>
        <linearGradient id="_Linear2" x1="0" y1="0" x2="1" y2="0" gradientUnits="userSpaceOnUse" gradientTransform="matrix(6.88925e-16,-11.251,11.251,6.88925e-16,15.444,11.25)"><stop offset="0" style="stop-color:rgb(252,133,7);stop-opacity:1"/><stop offset="1" style="stop-color:rgb(255,162,24);stop-opacity:1"/></linearGradient>
        <linearGradient id="_Linear3" x1="0" y1="0" x2="1" y2="0" gradientUnits="userSpaceOnUse" gradientTransform="matrix(6.88925e-16,-11.251,11.251,6.88925e-16,15.444,11.25)"><stop offset="0" style="stop-color:rgb(252,133,7);stop-opacity:1"/><stop offset="1" style="stop-color:rgb(255,162,24);stop-opacity:1"/></linearGradient>
        <linearGradient id="_Linear4" x1="0" y1="0" x2="1" y2="0" gradientUnits="userSpaceOnUse" gradientTransform="matrix(6.88925e-16,-11.251,11.251,6.88925e-16,15.444,11.25)"><stop offset="0" style="stop-color:rgb(252,133,7);stop-opacity:1"/><stop offset="1" style="stop-color:rgb(255,162,24);stop-opacity:1"/></linearGradient>
        <linearGradient id="_Linear5" x1="0" y1="0" x2="1" y2="0" gradientUnits="userSpaceOnUse" gradientTransform="matrix(6.88925e-16,-11.251,11.251,6.88925e-16,15.444,11.25)"><stop offset="0" style="stop-color:rgb(252,133,7);stop-opacity:1"/><stop offset="1" style="stop-color:rgb(255,162,24);stop-opacity:1"/></linearGradient>
    </defs>
</svg>
